<?xml version="1.0" encoding="UTF-8"?>
<svg version="1.1" xmlns="http://www.w3.org/2000/svg" width="1024" height="1024">
<path d="M0 0 C1.92809123 -0.00551503 1.92809123 -0.00551503 3.89513379 -0.01114148 C7.45169166 -0.02111477 11.00823266 -0.02487064 14.56480253 -0.02753079 C18.40460824 -0.03144729 22.24440076 -0.04102406 26.084198 -0.04974365 C35.34648042 -0.06946105 44.60876386 -0.07956425 53.87106201 -0.08847144 C58.23338118 -0.09285853 62.59569914 -0.09822392 66.95801735 -0.10346031 C81.45657569 -0.12046116 95.95513329 -0.13495856 110.45370007 -0.14220905 C114.2118346 -0.14411889 117.96996913 -0.14603924 121.72810364 -0.147995 C122.66214892 -0.14847874 123.59619421 -0.14896248 124.5585439 -0.14946087 C139.71297229 -0.1577737 154.86732207 -0.18313678 170.02171608 -0.21557567 C185.57996933 -0.24860803 201.13818253 -0.26665399 216.69647104 -0.26985329 C225.43236286 -0.27202099 234.16813974 -0.28080842 242.90399742 -0.30631447 C250.33749723 -0.32796853 257.77085413 -0.33609778 265.20438191 -0.32634769 C268.99836207 -0.32178871 272.79204701 -0.32378151 276.58598709 -0.34310913 C280.69417215 -0.3638578 284.80169626 -0.35380259 288.90991211 -0.34057617 C290.11524367 -0.35154542 291.32057523 -0.36251466 292.56243199 -0.37381631 C294.20858226 -0.36094497 294.20858226 -0.36094497 295.88798809 -0.34781361 C296.83653217 -0.34879041 297.78507625 -0.34976722 298.76236409 -0.35077363 C302.01070164 0.29567601 303.18737112 1.62781012 305.26448059 4.14717102 C309.30441362 12.22703707 305.35559117 24.8269139 303.70198059 33.20967102 C303.50182343 34.24689301 303.50182343 34.24689301 303.29762268 35.30506897 C289.02197875 109.10374843 289.02197875 109.10374843 265.26448059 126.14717102 C261.29612256 128.08989756 258.03178168 128.41580686 253.63398743 128.46601868 C252.65332046 128.48108286 252.65332046 128.48108286 251.65284204 128.49645138 C249.46805759 128.52746988 247.28340179 128.54445212 245.09846497 128.56123352 C243.52834698 128.5801118 241.95823784 128.59973868 240.38813782 128.62005615 C236.11015603 128.6724983 231.83214383 128.71186566 227.55399895 128.74826431 C224.84525885 128.77228606 222.13657955 128.79991808 219.42788696 128.82878113 C178.1178454 129.26798163 136.80810881 129.23124514 95.49640656 129.15237427 C82.6509836 129.12790878 69.80556735 129.10533569 56.96012545 129.09375286 C51.86927638 129.08886776 46.77846955 129.07917737 41.68763733 129.06532288 C38.54568754 129.05778822 35.40374313 129.05453473 32.26178551 129.05235672 C30.83045296 129.050513 29.39912121 129.04697096 27.96779823 129.0414238 C20.39617834 129.01302499 12.84938045 129.14668183 5.28926086 129.55171204 C4.60793925 129.58533057 3.92661763 129.61894911 3.22464991 129.65358639 C-13.72432222 130.66845176 -28.90092723 137.08545053 -41.73551941 148.14717102 C-42.39809753 148.66666321 -43.06067566 149.1861554 -43.74333191 149.72138977 C-60.53936569 163.32288379 -70.82830832 187.06573959 -73.73551941 208.14717102 C-74.02189498 213.58410836 -74.00865553 219.01405408 -73.99380493 224.4564209 C-73.99666295 226.10683097 -74.00040278 227.7572397 -74.00494343 229.407646 C-74.01488877 233.92410509 -74.0125604 238.44048618 -74.0082165 242.95695102 C-74.00573365 247.83593392 -74.01481745 252.71489667 -74.02259827 257.59387207 C-74.03463029 266.04599545 -74.03975056 274.4981 -74.04047966 282.95023155 C-74.04180794 295.19555171 -74.05694391 307.44082637 -74.07597483 319.68613044 C-74.10680701 339.58777049 -74.13097397 359.4894117 -74.14884949 379.3910675 C-74.14992217 380.58160649 -74.15099485 381.77214547 -74.15210003 382.99876139 C-74.16390682 396.26545438 -74.17411353 409.53214783 -74.18254089 422.79884338 C-74.18561459 427.60204571 -74.18870344 432.40524802 -74.19181824 437.20845032 C-74.19258358 438.39359103 -74.19334892 439.57873175 -74.19413745 440.79978582 C-74.20725241 460.61273993 -74.23194034 480.42566123 -74.26556164 500.23859102 C-74.28577428 512.44007666 -74.29615174 524.64149192 -74.29357243 536.84299443 C-74.29253154 545.21936365 -74.30226699 553.5956775 -74.32021146 561.97202738 C-74.33018292 566.79309431 -74.33546484 571.61403862 -74.32744408 576.435112 C-74.29232854 599.78882944 -74.43569738 622.782927 -80.54801941 645.52217102 C-80.93812195 647.01454285 -80.93812195 647.01454285 -81.33610535 648.5370636 C-90.38074711 682.36718776 -107.33024166 712.24413696 -131.35905457 737.66914368 C-133.28823177 739.74066527 -135.13480548 741.88057867 -136.98551941 744.02217102 C-140.62758068 748.12319123 -144.50943259 751.65834545 -148.73551941 755.14717102 C-149.29271667 755.61671204 -149.84991394 756.08625305 -150.42399597 756.57002258 C-159.45150232 764.17336602 -168.58165094 771.1228002 -178.73551941 777.14717102 C-179.35362488 777.51793762 -179.97173035 777.88870422 -180.60856628 778.27070618 C-226.54077418 805.63184626 -281.17741958 814.61898682 -333.29801941 801.95967102 C-334.32548279 801.69138489 -334.32548279 801.69138489 -335.373703 801.41767883 C-338.18072484 800.68837916 -340.6644049 800.14687756 -343.57536316 800.15888977 C-345.73551941 800.14717102 -345.73551941 800.14717102 -347.73551941 798.14717102 C-350.05967194 797.21632421 -352.37644091 796.35448963 -354.73551941 795.52217102 C-375.09511109 788.06648067 -393.70777207 778.66993679 -410.73551941 765.14717102 C-411.52571472 764.54904602 -412.31591003 763.95092102 -413.13005066 763.33467102 C-418.82195742 758.954829 -424.09960683 754.15334682 -429.36051941 749.27217102 C-430.4467157 748.27129456 -430.4467157 748.27129456 -431.55485535 747.25019836 C-432.5608075 746.30587952 -432.5608075 746.30587952 -433.58708191 745.34248352 C-434.49707947 744.49194397 -434.49707947 744.49194397 -435.42546082 743.6242218 C-436.73551941 742.14717102 -436.73551941 742.14717102 -436.73551941 740.14717102 C-437.39551941 740.14717102 -438.05551941 740.14717102 -438.73551941 740.14717102 C-441.49193899 737.18283186 -443.94428317 733.96627398 -446.44596863 730.78535461 C-447.71248075 729.17643823 -448.99113464 727.57776432 -450.27067566 725.97920227 C-472.66238002 697.74298621 -485.59900866 664.76563739 -491.19255066 629.35029602 C-491.65237583 626.14122093 -491.65237583 626.14122093 -492.73551941 623.14717102 C-492.98074863 618.25618748 -492.93112032 613.35622172 -492.92301941 608.45967102 C-492.92208282 607.74021301 -492.92114624 607.020755 -492.92018127 606.27949524 C-492.75795559 548.70296232 -475.56463879 496.12273746 -436.73551941 453.14717102 C-435.74033385 452.02903189 -434.74553087 450.91055211 -433.75114441 449.79170227 C-428.7249803 444.17523415 -423.57758848 438.9235858 -417.73551941 434.14717102 C-416.56078053 433.16050099 -415.38632996 432.17348764 -414.21208191 431.18623352 C-405.42742447 423.86134434 -396.40859723 417.2437144 -386.73551941 411.14717102 C-385.62692566 410.43431946 -384.51833191 409.7214679 -383.37614441 408.98701477 C-363.44840045 396.42499028 -341.86554467 387.046659 -319.73551941 379.14717102 C-318.8196405 378.81491516 -317.9037616 378.4826593 -316.96012878 378.14033508 C-306.63089346 374.41647423 -296.216517 371.37152213 -285.54801941 368.77217102 C-284.52055603 368.5211261 -283.49309265 368.27008118 -282.43449402 368.01142883 C-266.40015046 364.25896067 -266.40015046 364.25896067 -260.73551941 366.14717102 C-256.94816502 371.53498336 -257.31058922 376.97033957 -257.34733582 383.28974915 C-257.33945038 384.95909767 -257.33945038 384.95909767 -257.33140564 386.66217041 C-257.31822104 390.33439746 -257.32693867 394.00618969 -257.33708191 397.67842102 C-257.33506074 400.2338011 -257.33214895 402.78918061 -257.3283844 405.34455872 C-257.32396311 410.6976067 -257.33009892 416.0504994 -257.34440613 421.40351868 C-257.36073135 427.5827349 -257.35544231 433.76165411 -257.33892691 439.94086313 C-257.32364675 445.89746976 -257.3252969 451.8539845 -257.33407211 457.81060791 C-257.33607269 460.33995607 -257.33361986 462.86931182 -257.32663345 465.39865112 C-257.31901087 468.934169 -257.33063543 472.4691174 -257.34733582 476.0045929 C-257.34126312 477.0489299 -257.33519043 478.09326691 -257.32893372 479.16925049 C-257.37621228 484.57479465 -257.6529848 488.49328498 -260.73551941 493.14717102 C-262.36442566 494.39717102 -262.36442566 494.39717102 -264.29801941 495.14717102 C-265.0959491 495.46299133 -265.89387878 495.77881165 -266.71598816 496.10420227 C-269.02477126 496.90167328 -271.3347632 497.66658981 -273.66130066 498.40888977 C-308.3471816 509.49202143 -337.51404361 528.59635844 -354.98234558 561.26118469 C-364.64407227 580.39548145 -366.47756781 602.59063776 -360.73551941 623.14717102 C-359.31714557 627.28660956 -357.63469551 631.20733292 -355.73551941 635.14717102 C-355.3165741 636.05982727 -354.89762878 636.97248352 -354.46598816 637.91279602 C-350.52379043 645.86535628 -344.94595187 651.93673856 -338.73551941 658.14717102 C-337.58503113 659.2976593 -337.58503113 659.2976593 -336.41130066 660.47138977 C-331.06942318 665.50637303 -325.33892099 668.98245067 -318.73551941 672.14717102 C-317.58503113 672.71758118 -317.58503113 672.71758118 -316.41130066 673.29951477 C-298.62842675 681.30029845 -277.86340198 680.6154994 -259.73551941 674.14717102 C-250.60773155 670.44289659 -242.04411633 665.80764708 -234.73551941 659.14717102 C-233.52508972 658.07402649 -233.52508972 658.07402649 -232.29020691 656.97920227 C-216.13166207 641.83365489 -205.42530172 618.88244628 -204.60836089 596.69340032 C-204.60732906 595.47161457 -204.60629724 594.24982881 -204.60523415 592.99101925 C-204.60329072 592.30236537 -204.60134729 591.61371149 -204.59934497 590.90418932 C-204.59404337 588.60348635 -204.59578402 586.30284387 -204.5974884 584.00213623 C-204.59506892 582.33297966 -204.59220621 580.66382367 -204.58893907 578.99466854 C-204.5811983 574.41251391 -204.57956731 569.83037426 -204.57888794 565.24821389 C-204.57704584 560.30376171 -204.56943728 555.35931826 -204.56240845 550.41487122 C-204.55088683 541.84483385 -204.54264006 533.27479844 -204.53628922 524.70475578 C-204.52594946 511.14274683 -204.50538051 497.58076227 -204.48316956 484.01876831 C-204.47568973 479.37497242 -204.46827594 474.73117643 -204.46088219 470.08738041 C-204.45810634 468.34647287 -204.45810634 468.34647287 -204.45527441 466.57039548 C-204.43434879 453.35974296 -204.41552192 440.14908774 -204.39762878 426.93843079 C-204.3959906 425.73097991 -204.39435242 424.52352904 -204.3926646 423.27948875 C-204.36641942 403.74325748 -204.34775403 384.20702432 -204.33103688 364.67078292 C-204.31357719 344.59011265 -204.28468827 324.50947916 -204.24614751 304.42883831 C-204.222826 292.05788439 -204.20876002 279.68699049 -204.20681988 267.31601442 C-204.20470014 258.8228155 -204.19168482 250.32967608 -204.17034055 241.83650392 C-204.15838948 236.94672665 -204.15110757 232.0570674 -204.15705299 227.16727638 C-204.19978231 186.54297903 -201.03198291 140.46132304 -176.21598816 106.19795227 C-174.51012139 103.83494422 -173.00988294 101.38092419 -171.48551941 98.89717102 C-164.9984424 88.69709598 -157.45414811 79.58326678 -149.18083191 70.80342102 C-146.72949998 68.20619905 -146.72949998 68.20619905 -144.64567566 65.51045227 C-142.89704027 63.34700766 -141.16645982 61.62446449 -139.04801941 59.83467102 C-136.94629967 58.04686935 -134.86156532 56.26538799 -132.84880066 54.37763977 C-120.37525468 42.73729725 -106.10298795 33.89708387 -91.15153503 25.81660461 C-90.13124207 25.26440247 -89.1109491 24.71220032 -88.05973816 24.14326477 C-87.15312439 23.6604303 -86.24651062 23.17759583 -85.31242371 22.68013 C-82.63208841 21.18173648 -82.63208841 21.18173648 -80.15275574 18.95991516 C-77.73551941 17.14717102 -77.73551941 17.14717102 -73.73551941 17.14717102 C-71.44484925 16.29379512 -71.44484925 16.29379512 -69.17301941 15.14717102 C-66.3227004 13.76286769 -64.95686413 13.14717102 -61.73551941 13.14717102 C-61.40551941 12.48717102 -61.07551941 11.82717102 -60.73551941 11.14717102 C-58.89958191 10.47138977 -58.89958191 10.47138977 -56.36051941 9.83467102 C-55.38727722 9.5845929 -54.41403503 9.33451477 -53.41130066 9.07685852 C-52.19829285 8.77006165 -50.98528503 8.46326477 -49.73551941 8.14717102 C-47.2122244 7.4859508 -44.690425 6.81919497 -42.16862488 6.15229797 C-38.35894753 5.1453989 -34.54718875 4.14649987 -30.73551941 3.14717102 C-30.73551941 2.48717102 -30.73551941 1.82717102 -30.73551941 1.14717102 C-30.02266785 1.15877258 -29.30981628 1.17037415 -28.57536316 1.18232727 C-27.61758972 1.19135071 -26.65981628 1.20037415 -25.67301941 1.20967102 C-24.73329285 1.22127258 -23.79356628 1.23287415 -22.82536316 1.24482727 C-19.75367149 1.21879322 -19.75367149 1.21879322 -16.83837414 0.65026569 C-11.25696507 -0.16693158 -5.62836317 -0.0008657 0 0 Z " fill="#0E0F0F" transform="translate(612.7355194091797,62.85282897949219)"/>
<path d="M0 0 C0.83857809 -0.00623996 1.67715619 -0.01247993 2.54114574 -0.01890898 C5.34957059 -0.03485707 8.1571297 -0.02222778 10.96556091 -0.00964355 C12.97949225 -0.01506382 14.99341963 -0.02218595 17.00733948 -0.03088379 C22.47624458 -0.04913013 27.94484809 -0.04204441 33.41375852 -0.02936745 C39.13342181 -0.01924802 44.85305909 -0.02863006 50.57272339 -0.03491211 C60.17718651 -0.04219099 69.78152662 -0.03259381 79.38597107 -0.0135498 C90.49633623 0.00822552 101.60640787 0.00116364 112.71676594 -0.02085543 C122.2506339 -0.03899511 131.7844134 -0.04157493 141.31829304 -0.03110075 C147.014842 -0.02485876 152.7112529 -0.02404974 158.40779305 -0.0372467 C163.76193262 -0.04878392 169.1156929 -0.04081829 174.46979141 -0.01766968 C176.43704154 -0.01237148 178.40432349 -0.01391526 180.37156105 -0.02272034 C183.05250326 -0.03361545 185.73222216 -0.01998582 188.41308594 0 C189.19566837 -0.00892289 189.97825081 -0.01784577 190.78454787 -0.02703905 C194.28075016 0.02368421 196.26282318 0.22193529 199.09492397 2.35218048 C203.05066615 7.86051824 201.90283991 14.481194 200.8657074 20.80871582 C194.8757401 53.06446047 183.76088158 81.55184281 163.64305115 107.50793457 C162.93535583 108.4489502 162.22766052 109.38996582 161.4985199 110.35949707 C160.88621521 111.06848145 160.27391052 111.77746582 159.64305115 112.50793457 C158.98305115 112.50793457 158.32305115 112.50793457 157.64305115 112.50793457 C157.29500427 113.3664502 157.29500427 113.3664502 156.93992615 114.24230957 C150.52772894 125.44434083 132.90194959 133.27861366 121.16648865 136.71887207 C112.08267403 138.75316315 103.32456405 139.80558974 94.01878357 139.78259277 C92.92612183 139.7877037 91.83346008 139.79281464 90.70768738 139.79808044 C87.13790741 139.81184988 83.56832306 139.81103031 79.9985199 139.80871582 C77.49895151 139.81260757 74.99938378 139.81694323 72.49981689 139.82170105 C67.28101956 139.82913442 62.06228993 139.82889138 56.8434906 139.8236084 C51.49248712 139.81895308 46.14172483 139.8253365 40.79075623 139.84411621 C34.30596271 139.86657984 27.82132662 139.87436925 21.33649635 139.87044334 C18.87216455 139.87095604 16.40782896 139.87618411 13.94351768 139.88625526 C10.50227746 139.89860275 7.06157775 139.89183938 3.62034607 139.88024902 C2.60773209 139.88789276 1.5951181 139.8955365 0.55181885 139.90341187 C-5.14240561 139.86106014 -9.43447824 139.50476218 -14.35694885 136.50793457 C-21.24149609 125.51808053 -17.44526431 102.60370585 -17.34132385 90.05480957 C-17.32459097 87.73695933 -17.30792968 85.41910857 -17.29133606 83.10125732 C-17.25514512 78.28055357 -17.21395891 73.45992043 -17.16993713 68.63928223 C-17.11453178 62.46245633 -17.07822746 56.2856703 -17.04630661 50.10868454 C-17.0184861 45.33884459 -16.97744501 40.56918509 -16.93270111 35.79947662 C-16.91352677 33.52053619 -16.8992201 31.24154934 -16.88990021 28.9625473 C-16.87559561 25.78954703 -16.84271555 22.61725687 -16.80519104 19.44445801 C-16.80498711 18.0387429 -16.80498711 18.0387429 -16.80477905 16.60462952 C-16.70353604 10.33605733 -15.7946135 6.95970974 -11.26772785 2.40662003 C-7.50171149 -0.04993215 -4.34913607 -0.04972995 0 0 Z " fill="#0E0F0F" transform="translate(601.3569488525391,366.4920654296875)"/>
<path d="M0 0 C1.42907746 0.00170874 1.42907746 0.00170874 2.88702518 0.003452 C3.98678453 -0.00252114 5.08654389 -0.00849429 6.21962929 -0.01464844 C7.43264853 -0.00590991 8.64566777 0.00282861 9.89544517 0.01183194 C11.82264324 0.00798703 11.82264324 0.00798703 13.78877461 0.00406444 C17.36219162 -0.0026609 20.93534017 0.00938002 24.50872296 0.02439862 C28.35942201 0.03732537 32.21010529 0.03297192 36.06081992 0.0306918 C42.73482901 0.02911693 49.40875027 0.0385484 56.08273727 0.05540532 C65.73224854 0.07976188 75.38171725 0.08759716 85.03125594 0.09136929 C100.68606775 0.09793904 116.34083274 0.11791437 131.99561912 0.14627713 C147.20492663 0.17380418 162.41422142 0.19504438 177.62354881 0.20780057 C178.56067725 0.20858874 179.49780569 0.20937691 180.46333196 0.21018896 C185.16451835 0.21410401 189.86570483 0.21789515 194.56689137 0.22162467 C233.58263615 0.25273686 272.59832865 0.30558687 311.61402732 0.37259549 C311.94402732 1.03259549 312.27402732 1.69259549 312.61402732 2.37259549 C207.67402732 2.70259549 102.73402732 3.03259549 -5.38597268 3.37259549 C-2.38597268 0.37259549 -2.38597268 0.37259549 0 0 Z " fill="#000000" transform="translate(601.3859726786613,63.627404510974884)"/>
<path d="M0 0 C0.9121547 -0.00199105 1.82430939 -0.0039821 2.76410514 -0.00603348 C3.75729654 -0.00312064 4.75048794 -0.0002078 5.77377605 0.00279331 C6.83568824 0.00193889 7.89760043 0.00108446 8.99169177 0.00020415 C12.55543807 -0.00144499 16.11913747 0.00406151 19.68287945 0.00952244 C22.23530864 0.00980446 24.7877379 0.00964629 27.34016705 0.00907993 C32.83820284 0.0088521 38.33622349 0.01169138 43.83425617 0.01731777 C51.78347114 0.02544727 59.73268036 0.02804948 67.68189903 0.02930576 C80.57920175 0.031494 93.47649814 0.03814791 106.37379742 0.04760838 C118.90179189 0.05678839 131.42978464 0.06386634 143.95778179 0.06811619 C144.73010003 0.06837891 145.50241827 0.06864164 146.29814009 0.06891232 C150.17266136 0.07021736 154.04718264 0.07148107 157.92170393 0.07272422 C190.06109451 0.08308973 222.20047731 0.10070185 254.33986187 0.12304783 C254.33986187 0.45304783 254.33986187 0.78304783 254.33986187 1.12304783 C212.87112862 1.75454043 171.40764443 2.22248648 129.93361187 2.18554783 C129.04603191 2.1848391 128.15845196 2.18413036 127.24397564 2.18340015 C114.68656466 2.17305952 102.12917922 2.15222521 89.57178783 2.12825108 C76.72636488 2.10378559 63.88094863 2.0812125 51.03550673 2.06962967 C45.94465766 2.06474457 40.85385083 2.05505418 35.76301861 2.04119968 C32.62106882 2.03366503 29.47912441 2.03041154 26.33716679 2.02823353 C24.90583424 2.02638981 23.47450249 2.02284777 22.04317951 2.01730061 C14.39987174 1.98863292 6.7900131 2.1388455 -0.8399477 2.57275486 C-1.54869714 2.61242846 -2.25744658 2.65210207 -2.98767328 2.69297791 C-7.97239222 3.00408668 -12.48142663 3.72056515 -17.28513813 5.06054783 C-19.16072407 5.56908298 -19.16072407 5.56908298 -21.07420063 6.08789158 C-22.25756001 6.42949314 -23.44091938 6.7710947 -24.66013813 7.12304783 C-25.98036209 7.49966043 -27.30067154 7.87597349 -28.62107563 8.25195408 C-29.62396626 8.53941502 -30.62685688 8.82687595 -31.66013813 9.12304783 C-30.66013813 6.12304783 -30.66013813 6.12304783 -28.47263813 4.93554783 C-25.40623502 4.04969804 -22.83575658 3.97534464 -19.66013813 4.12304783 C-19.66013813 3.46304783 -19.66013813 2.80304783 -19.66013813 2.12304783 C-16.16963263 0.95954599 -13.3281063 1.12304783 -9.66013813 1.12304783 C-8.85648785 0.96058569 -8.05283758 0.79812355 -7.22483426 0.63073832 C-4.73806953 0.13847462 -2.52987022 -0.00122393 0 0 Z " fill="#424041" transform="translate(618.660138130188,189.87695217132568)"/>
<path d="M0 0 C2.33944736 0.28730055 4.6739143 0.61936779 7 1 C0.40092183 5.12442385 -8.742515 4.14858171 -16.23364258 4.14526367 C-17.33214539 4.14862228 -18.43064819 4.1519809 -19.56243896 4.15544128 C-23.17314805 4.16489798 -26.78381057 4.16689118 -30.39453125 4.16796875 C-32.90939859 4.17118302 -35.42426574 4.17454722 -37.93913269 4.17805481 C-43.19860129 4.1840314 -48.45805812 4.18593897 -53.7175293 4.18530273 C-59.79680783 4.18470008 -65.87599818 4.19529617 -71.95525438 4.2110464 C-77.81361235 4.22568269 -83.67193525 4.22929137 -89.53030968 4.22869301 C-92.02027435 4.22987548 -94.51023963 4.23431214 -97.00019264 4.24202538 C-100.47131426 4.25177842 -103.94220507 4.24896668 -107.41333008 4.24291992 C-108.96324898 4.25134918 -108.96324898 4.25134918 -110.54447937 4.25994873 C-111.48784149 4.25575424 -112.43120361 4.25155975 -113.40315247 4.24723816 C-114.2232974 4.24778293 -115.04344233 4.24832769 -115.88844013 4.24888897 C-118 4 -118 4 -121 2 C-120.07371088 1.99365209 -120.07371088 1.99365209 -119.12870884 1.98717594 C-104.12364124 1.88400556 -89.11862389 1.77538852 -74.11364079 1.66066074 C-66.85743403 1.60531219 -59.60122236 1.55182757 -52.3449707 1.50268555 C-46.02263061 1.45986364 -39.70032696 1.41359078 -33.37804312 1.36312145 C-30.02845393 1.33650437 -26.67887205 1.31165099 -23.3292408 1.29092598 C-19.59582571 1.26696035 -15.86250777 1.23689542 -12.12915039 1.20532227 C-10.45141037 1.19668907 -10.45141037 1.19668907 -8.73977661 1.18788147 C-7.72870346 1.17809265 -6.71763031 1.16830383 -5.67591858 1.15821838 C-4.79191911 1.15176583 -3.90791964 1.14531328 -2.9971323 1.1386652 C-1.00079477 1.21960493 -1.00079477 1.21960493 0 0 Z " fill="#3D3C3C" transform="translate(712,502)"/>
<path d="M0 0 C0.33 0 0.66 0 1 0 C1.01458252 0.67877197 1.02916504 1.35754395 1.04418945 2.05688477 C1.44087146 18.61800815 1.83994171 33.9942645 8.81640625 49.31640625 C10.07183032 52.16286279 11.05595044 55.03733757 12 58 C10.0625 57.1875 10.0625 57.1875 8 56 C7.505 54.515 7.505 54.515 7 53 C7.33 52.34 7.66 51.68 8 51 C7.01 50.67 6.02 50.34 5 50 C3.5522078 47.10441559 3 45.25811062 3 42 C2.34 42 1.68 42 1 42 C0.48722171 38.87696198 -0.00776825 35.75133678 -0.5 32.625 C-0.64308594 31.75488281 -0.78617188 30.88476562 -0.93359375 29.98828125 C-2.23111579 21.64706812 -2.55086569 13.7109031 -1 5.375 C-0.814375 4.35148438 -0.62875 3.32796875 -0.4375 2.2734375 C-0.293125 1.52320313 -0.14875 0.77296875 0 0 Z " fill="#1A1A1A" transform="translate(247,646)"/>
<path d="M0 0 C1.32 0.33 2.64 0.66 4 1 C-4.25 9.25 -12.5 17.5 -21 26 C-21.33 25.34 -21.66 24.68 -22 24 C-18.5120966 16.58820527 -11.9569586 10.73166464 -5.78515625 5.546875 C-3.83971691 3.92552725 -3.83971691 3.92552725 -1.75 1.5 C-1.1725 1.005 -0.595 0.51 0 0 Z " fill="#1A1A1A" transform="translate(482,115)"/>
<path d="M0 0 C1.7109375 0.12890625 1.7109375 0.12890625 4 1 C5.67513824 2.94845027 7.14955492 4.84816858 8.625 6.9375 C12.67370451 12.46324887 16.96428123 17.18325755 21.96875 21.87890625 C23.88723825 23.88225071 24.93027084 25.47009055 26 28 C26.33 28.66 26.66 29.32 27 30 C22.86360664 28.40907948 19.76786752 25.39525082 17 22 C17 21.34 17 20.68 17 20 C16.34 20 15.68 20 15 20 C9.2968428 13.8976218 4.44336221 7.05710468 0 0 Z " fill="#262525" transform="translate(159,783)"/>
<path d="M0 0 C2.85423192 -0.02718316 5.70820015 -0.04692705 8.5625 -0.0625 C9.36236328 -0.07087891 10.16222656 -0.07925781 10.98632812 -0.08789062 C15.77163104 -0.10742247 20.28145051 0.19562982 25 1 C25 1.66 25 2.32 25 3 C34.24 3 43.48 3 53 3 C53 3.33 53 3.66 53 4 C35.02836601 4.3427018 17.76608709 4.13190203 0 1 C0 0.67 0 0.34 0 0 Z " fill="#3B3A3A" transform="translate(289,866)"/>
<path d="M0 0 C0 4.2090824 -2.28197091 6.55394641 -4.6875 9.8125 C-5.12255859 10.41642578 -5.55761719 11.02035156 -6.00585938 11.64257812 C-8.85377614 15.56215542 -11.75982378 19.39551095 -15 23 C-15.66 23 -16.32 23 -17 23 C-17.66 24.32 -18.32 25.64 -19 27 C-19.66 26.01 -20.32 25.02 -21 24 C-20.48050781 23.5153125 -19.96101562 23.030625 -19.42578125 22.53125 C-15.20218399 18.47160014 -11.83618585 14.61124701 -9.0078125 9.46875 C-8.67523437 8.9840625 -8.34265625 8.499375 -8 8 C-7.34 8 -6.68 8 -6 8 C-5.62875 6.8553125 -5.62875 6.8553125 -5.25 5.6875 C-3.89004442 2.7635955 -2.68414174 1.69995644 0 0 Z " fill="#252424" transform="translate(776,456)"/>
<path d="M0 0 C-1.03833984 0.82564453 -1.03833984 0.82564453 -2.09765625 1.66796875 C-13.86363692 10.99509344 -13.86363692 10.99509344 -24 22 C-24.33 21.01 -24.66 20.02 -25 19 C-23.8125 17.203125 -23.8125 17.203125 -22 15.25 C-21.02740234 14.198125 -21.02740234 14.198125 -20.03515625 13.125 C-19.02775391 12.073125 -19.02775391 12.073125 -18 11 C-17.10087891 10.0409375 -17.10087891 10.0409375 -16.18359375 9.0625 C-6.69440332 -0.78757686 -6.69440332 -0.78757686 0 0 Z " fill="#1F1E1E" transform="translate(582,202)"/>
<path d="M0 0 C-4.28186789 2.82059552 -8.70126663 4.54267863 -13.5 6.25 C-14.61955078 6.67152344 -14.61955078 6.67152344 -15.76171875 7.1015625 C-19.86386744 8.56817141 -22.70177402 9.4668549 -27 8 C-26.34 7.34 -25.68 6.68 -25 6 C-24.01 6 -23.02 6 -22 6 C-21.67 5.34 -21.34 4.68 -21 4 C-18.7421875 3.21875 -18.7421875 3.21875 -15.875 2.5 C-12.55273299 1.65433203 -9.26711314 0.78762392 -6 -0.25 C-3 -1 -3 -1 0 0 Z " fill="#1A1919" transform="translate(573,70)"/>
<path d="M0 0 C1.65213718 3.30427436 2.77839699 6.25174577 3.875 9.75 C5.10869297 13.55815416 6.43985652 17.08706457 8.3125 20.625 C8.869375 21.73875 9.42625 22.8525 10 24 C9.67 24.66 9.34 25.32 9 26 C7.68 24.68 6.36 23.36 5 22 C5.33 21.01 5.66 20.02 6 19 C5.01 18.67 4.02 18.34 3 18 C1.5522078 15.10441559 1 13.25811062 1 10 C0.34 10 -0.32 10 -1 10 C-0.67 6.7 -0.34 3.4 0 0 Z " fill="#161515" transform="translate(249,678)"/>
<path d="M0 0 C0 3 0 3 -2.4140625 5.5234375 C-3.47686055 6.48235304 -4.5475638 7.43256171 -5.625 8.375 C-6.40810547 9.07882812 -6.40810547 9.07882812 -7.20703125 9.796875 C-10.73471135 12.95001129 -14.35201591 15.98740052 -18 19 C-17.2026091 12.73900479 -11.30625907 8.17327166 -7 4 C-4.68437681 2.32443463 -2.60813895 1.19067213 0 0 Z " fill="#1D1C1C" transform="translate(194,500)"/>
<path d="M0 0 C0.99 0.33 1.98 0.66 3 1 C3.51998897 10.99534362 1.94048973 20.25134921 0 30 C-0.33 30 -0.66 30 -1 30 C-1.33 26.37 -1.66 22.74 -2 19 C-1.34 18.67 -0.68 18.34 0 18 C0 12.06 0 6.12 0 0 Z " fill="#212121" transform="translate(916,68)"/>
<path d="M0 0 C0.66 0.33 1.32 0.66 2 1 C0.33383155 6.26213961 -2.93068369 10.39159587 -6.125 14.8125 C-6.68832031 15.60076172 -7.25164062 16.38902344 -7.83203125 17.20117188 C-9.21677658 19.13746831 -10.60618627 21.07022641 -12 23 C-12.33 22.34 -12.66 21.68 -13 21 C-12.505 19.515 -12.505 19.515 -12 18 C-11.34 17.67 -10.68 17.34 -10 17 C-9.71382813 16.28457031 -9.42765625 15.56914063 -9.1328125 14.83203125 C-7.77696474 11.44241186 -5.92900553 8.70225005 -3.875 5.6875 C-3.15054687 4.61886719 -2.42609375 3.55023437 -1.6796875 2.44921875 C-0.84824219 1.23685547 -0.84824219 1.23685547 0 0 Z " fill="#252424" transform="translate(505,765)"/>
<path d="M0 0 C0.33 0.66 0.66 1.32 1 2 C-1.71568551 8.86908688 -6.34867783 14.67433892 -13 18 C-11.59618624 13.74278218 -9.55933627 11.12306156 -6.5 7.875 C-4.08551892 5.29589521 -1.96265593 2.94398389 0 0 Z " fill="#232323" transform="translate(173,519)"/>
<path d="M0 0 C0.66 0.33 1.32 0.66 2 1 C2.40846396 10.95441792 1.46481617 19.34613668 -1 29 C-1.33 29 -1.66 29 -2 29 C-1.41633235 19.32601916 -0.77749545 9.66079456 0 0 Z " fill="#272727" transform="translate(800,374)"/>
<path d="M0 0 C0.66 0.33 1.32 0.66 2 1 C-4.1346545 4.95742848 -9.94417074 8.05709049 -17 10 C-17.33 9.34 -17.66 8.68 -18 8 C-15.56343315 6.85214624 -13.12580719 5.70664598 -10.6875 4.5625 C-9.99720703 4.23701172 -9.30691406 3.91152344 -8.59570312 3.57617188 C-5.75522197 2.24512515 -2.97876197 0.99292066 0 0 Z " fill="#282827" transform="translate(275,449)"/>
<path d="M0 0 C0.6875 1.75 0.6875 1.75 1 4 C0.01543525 5.34477137 -0.98826608 6.67554832 -2 8 C-3.09900417 10.06430954 -4.15994107 12.14921285 -5.1875 14.25 C-5.71730469 15.32765625 -6.24710937 16.4053125 -6.79296875 17.515625 C-7.19128906 18.33546875 -7.58960938 19.1553125 -8 20 C-8.33 20 -8.66 20 -9 20 C-9.99100904 13.55844127 -6.57198658 9.94442926 -3 5 C-1.98511532 3.34235502 -0.97597602 1.68084758 0 0 Z " fill="#242423" transform="translate(441,162)"/>
<path d="M0 0 C2.33944736 0.28730055 4.6739143 0.61936779 7 1 C3.19717566 3.50916948 -0.66162039 3.25607884 -5.046875 3.1953125 C-6.20367767 3.19106766 -6.20367767 3.19106766 -7.3838501 3.18673706 C-9.83939332 3.17557013 -12.2945676 3.15047229 -14.75 3.125 C-16.41796347 3.11496568 -18.08593268 3.10584061 -19.75390625 3.09765625 C-23.83607897 3.07564225 -27.917977 3.04113667 -32 3 C-32 2.67 -32 2.34 -32 2 C-31.06615479 1.97494385 -30.13230957 1.9498877 -29.17016602 1.92407227 C-25.71674811 1.82913072 -22.2635104 1.72988742 -18.81030273 1.62768555 C-17.31360731 1.58428187 -15.81686061 1.54261087 -14.32006836 1.50268555 C-12.17285688 1.44511384 -10.02590479 1.38138284 -7.87890625 1.31640625 C-6.5854126 1.27974854 -5.29191895 1.24309082 -3.95922852 1.20532227 C-1.11444992 1.3332722 -1.11444992 1.3332722 0 0 Z " fill="#100F10" transform="translate(712,502)"/>
<path d="M0 0 C-2.10325242 1.62619517 -4.20755729 3.25099532 -6.3125 4.875 C-7.20485352 5.56529297 -7.20485352 5.56529297 -8.11523438 6.26953125 C-10.70028005 8.26247149 -13.28299068 10.18866045 -16 12 C-15.47253972 8.02169787 -13.65128216 6.39792699 -10.6875 3.8125 C-9.51767578 2.77029297 -9.51767578 2.77029297 -8.32421875 1.70703125 C-5.37625031 -0.45811532 -3.40436409 -1.70218205 0 0 Z " fill="#1F1E1E" transform="translate(295,582)"/>
<path d="M0 0 C0.66 0 1.32 0 2 0 C3.76171875 2.484375 3.76171875 2.484375 5.6875 5.75 C6.33074219 6.81734375 6.97398437 7.8846875 7.63671875 8.984375 C9 12 9 12 8.70703125 14.390625 C8.47371094 14.92171875 8.24039063 15.4528125 8 16 C6.6583797 13.9007236 5.32663161 11.7962168 4 9.6875 C3.6184375 9.09259766 3.236875 8.49769531 2.84375 7.88476562 C0 3.33984375 0 3.33984375 0 0 Z " fill="#212121" transform="translate(147,763)"/>
<path d="M0 0 C0.99 0 1.98 0 3 0 C1.51095825 3.89608498 -0.24378713 7.59097018 -2.125 11.3125 C-2.66382813 12.38113281 -3.20265625 13.44976563 -3.7578125 14.55078125 C-4.37269531 15.76314453 -4.37269531 15.76314453 -5 17 C-5.33 17 -5.66 17 -6 17 C-5.57664615 10.50857435 -3.08900201 5.66507011 0 0 Z " fill="#242424" transform="translate(260,613)"/>
<path d="M0 0 C0.33 0.99 0.66 1.98 1 3 C-2.3 6.63 -5.6 10.26 -9 14 C-9.66 13.01 -10.32 12.02 -11 11 C-7.37 7.37 -3.74 3.74 0 0 Z " fill="#1D1D1D" transform="translate(483,795)"/>
<path d="M0 0 C4.82596069 3.15422267 9.57557408 6.28919117 14 10 C9.93598507 10.31261653 7.97014195 9.73270486 4.75 7.25 C3.72132813 6.48429688 3.72132813 6.48429688 2.671875 5.703125 C0.80783439 3.80424251 0.3839951 2.59761391 0 0 Z " fill="#252423" transform="translate(276,724)"/>
<path d="M0 0 C-3.99697365 3.37244652 -8.27090179 6.71374722 -13 9 C-13.66 8.67 -14.32 8.34 -15 8 C-15 7.34 -15 6.68 -15 6 C-14.01 5.67 -13.02 5.34 -12 5 C-11.34 5.33 -10.68 5.66 -10 6 C-9.67 5.01 -9.34 4.02 -9 3 C-6.03848967 0.1442579 -4.06571818 -0.33880985 0 0 Z " fill="#292929" transform="translate(749,489)"/>
<path d="M0 0 C2.125 0.9375 2.125 0.9375 4 2 C-1.92566493 4.30442525 -7.89262558 6.23536928 -14 8 C-13 5 -13 5 -10.8125 3.8125 C-7.74609689 2.92665021 -5.17561845 2.85229682 -2 3 C-2 2.34 -2 1.68 -2 1 C-1.34 0.67 -0.68 0.34 0 0 Z " fill="#2D2D2C" transform="translate(601,191)"/>
<path d="M0 0 C-3.46528089 3.46528089 -8.16086116 4.88505382 -13 5.1875 C-13.66 5.125625 -14.32 5.06375 -15 5 C-14.67 4.01 -14.34 3.02 -14 2 C-9.23982707 0.19113429 -5.06323209 -0.20666253 0 0 Z " fill="#272727" transform="translate(734,498)"/>
<path d="M0 0 C0.99 0.33 1.98 0.66 3 1 C-0.16474305 4.25516428 -3.32752791 7.32008793 -7 10 C-7.66 10 -8.32 10 -9 10 C-9 9.01 -9 8.02 -9 7 C-7.13671875 5.140625 -7.13671875 5.140625 -4.6875 3.25 C-3.88699219 2.61578125 -3.08648437 1.9815625 -2.26171875 1.328125 C-1.51535156 0.88984375 -0.76898438 0.4515625 0 0 Z " fill="#1F1F1F" transform="translate(459,818)"/>
<path d="M0 0 C0.66 0.33 1.32 0.66 2 1 C1.57316761 2.58624235 1.13303842 4.1689098 0.6875 5.75 C0.44386719 6.63171875 0.20023438 7.5134375 -0.05078125 8.421875 C-1.02125331 11.05772505 -2.21005644 12.85407326 -4 15 C-5.11346788 12.19966161 -5.03510273 11.09856297 -4.00390625 8.203125 C-3.52824219 7.22859375 -3.05257812 6.2540625 -2.5625 5.25 C-2.08941406 4.26515625 -1.61632812 3.2803125 -1.12890625 2.265625 C-0.75636719 1.51796875 -0.38382813 0.7703125 0 0 Z " fill="#242323" transform="translate(788,428)"/>
<path d="M0 0 C0.33 0 0.66 0 1 0 C0.5547115 5.27315333 -0.08373163 10.01770224 -2 15 C-4 12 -4 12 -3.57421875 9.3359375 C-3.28160156 8.35882813 -2.98898437 7.38171875 -2.6875 6.375 C-2.40261719 5.39273438 -2.11773438 4.41046875 -1.82421875 3.3984375 C-1 1 -1 1 0 0 Z " fill="#222222" transform="translate(904,137)"/>
<path d="M0 0 C0.58394531 0.35449219 1.16789062 0.70898438 1.76953125 1.07421875 C0.0044769 1.94026409 -1.76774949 2.79170517 -3.54296875 3.63671875 C-5.02216797 4.35021484 -5.02216797 4.35021484 -6.53125 5.078125 C-9.23046875 6.07421875 -9.23046875 6.07421875 -12.23046875 5.07421875 C-11.57046875 5.07421875 -10.91046875 5.07421875 -10.23046875 5.07421875 C-9.90046875 4.08421875 -9.57046875 3.09421875 -9.23046875 2.07421875 C-3.09324348 -1.28388565 -3.09324348 -1.28388565 0 0 Z " fill="#2A2929" transform="translate(412.23046875,849.92578125)"/>
<path d="M0 0 C2.22265625 2.05078125 2.22265625 2.05078125 4 4 C2.04082341 3.9131252 0.08258129 3.80495488 -1.875 3.6875 C-2.96554687 3.62949219 -4.05609375 3.57148437 -5.1796875 3.51171875 C-6.11039062 3.34285156 -7.04109375 3.17398438 -8 3 C-8.66 2.01 -9.32 1.02 -10 0 C-6.19426871 -1.2685771 -3.89430952 -0.88817586 0 0 Z " fill="#2E2D2D" transform="translate(275,860)"/>
<path d="M0 0 C3 1 3 1 4.16796875 3.06640625 C4.50441406 3.89011719 4.84085938 4.71382812 5.1875 5.5625 C5.53167969 6.38878906 5.87585938 7.21507812 6.23046875 8.06640625 C6.48441406 8.70449219 6.73835937 9.34257813 7 10 C6.34 10 5.68 10 5 10 C4.67 10.66 4.34 11.32 4 12 C3.3291288 10.3767313 2.66342971 8.75132422 2 7.125 C1.62875 6.22007812 1.2575 5.31515625 0.875 4.3828125 C0 2 0 2 0 0 Z " fill="#212121" transform="translate(134,737)"/>
<path d="M0 0 C0.66 0 1.32 0 2 0 C1.9375 3.25 1.9375 3.25 1 7 C-1.24251819 9.05227885 -3.11422355 9.80588561 -6 11 C-6.99 10.67 -7.98 10.34 -9 10 C-8.236875 9.7525 -7.47375 9.505 -6.6875 9.25 C-3.69502931 7.85815317 -2.65554168 6.81442085 -1 4 C-0.29485154 1.85266073 -0.29485154 1.85266073 0 0 Z " fill="#2D2C2D" transform="translate(352,548)"/>
<path d="M0 0 C0.33 0 0.66 0 1 0 C1.2396943 5.63281599 0.38529821 10.54538831 -1 16 C-1.33 16 -1.66 16 -2 16 C-3.27170568 9.525862 -2.68902652 6.02341941 0 0 Z " fill="#2D2D2D" transform="translate(534,689)"/>
<path d="M0 0 C0.33 0.99 0.66 1.98 1 3 C-0.3125 5.1875 -0.3125 5.1875 -2 7 C-2.66 7 -3.32 7 -4 7 C-4.66 8.32 -5.32 9.64 -6 11 C-6.66 10.01 -7.32 9.02 -8 8 C-5.36 5.36 -2.72 2.72 0 0 Z " fill="#1D1C1C" transform="translate(763,472)"/>
<path d="M0 0 C0.33 0 0.66 0 1 0 C1.02721176 1.89575251 1.04649136 3.79161979 1.0625 5.6875 C1.07410156 6.74324219 1.08570313 7.79898438 1.09765625 8.88671875 C1.00865425 11.72410262 0.64939838 14.2438919 0 17 C-1.83166003 13.91214401 -2.19090024 12.04199685 -1.6875 8.5 C-1.58824219 7.7471875 -1.48898437 6.994375 -1.38671875 6.21875 C-1.01948342 4.11178366 -0.54942434 2.06621118 0 0 Z " fill="#1B1A1A" transform="translate(914,91)"/>
<path d="M0 0 C4.4571874 0.26218749 6.51522698 0.57711289 9.9375 3.5625 C10.618125 4.366875 11.29875 5.17125 12 6 C11.01 6.495 11.01 6.495 10 7 C7.6171875 5.8203125 7.6171875 5.8203125 4.875 4.125 C3.96492187 3.57070313 3.05484375 3.01640625 2.1171875 2.4453125 C1.41851562 1.96835937 0.71984375 1.49140625 0 1 C0 0.67 0 0.34 0 0 Z " fill="#2A2929" transform="translate(216,837)"/>
<path d="M0 0 C3.33333333 0.66666667 6.66666667 1.33333333 10 2 C11.40185547 2.28037109 11.40185547 2.28037109 12.83203125 2.56640625 C13.54746094 2.70949219 14.26289063 2.85257813 15 3 C15 3.33 15 3.66 15 4 C6.76744186 5.37209302 6.76744186 5.37209302 3 3 C2.01 3 1.02 3 0 3 C0 2.01 0 1.02 0 0 Z " fill="#302F2F" transform="translate(298,738)"/>
<path d="M0 0 C0.33 0.66 0.66 1.32 1 2 C-0.38542316 5.62848922 -1.84351662 8.76527494 -4 12 C-4.66 12 -5.32 12 -6 12 C-4.68139111 7.38486888 -2.78644563 3.90102388 0 0 Z " fill="#262526" transform="translate(154,544)"/>
<path d="M0 0 C0.66 0 1.32 0 2 0 C1.71517632 1.41805831 1.42181856 2.83440379 1.125 4.25 C0.88136719 5.43335938 0.88136719 5.43335938 0.6328125 6.640625 C0.00849925 8.96831144 -0.84838542 10.89031952 -2 13 C-3.46845421 7.52667068 -2.44038726 4.88077452 0 0 Z " fill="#252525" transform="translate(542,248)"/>
<path d="M0 0 C0.33 0.66 0.66 1.32 1 2 C0.00390625 4.1640625 0.00390625 4.1640625 -1.4375 6.625 C-1.91058594 7.44226563 -2.38367188 8.25953125 -2.87109375 9.1015625 C-3.24363281 9.72804688 -3.61617187 10.35453125 -4 11 C-4.66 10.01 -5.32 9.02 -6 8 C-2.25 1.125 -2.25 1.125 0 0 Z " fill="#242324" transform="translate(516,748)"/>
<path d="M0 0 C1.28497537 3.85492611 0.4052209 5.40346836 -0.9375 9.1875 C-1.31777344 10.27417969 -1.69804688 11.36085938 -2.08984375 12.48046875 C-2.39019531 13.31191406 -2.69054687 14.14335937 -3 15 C-4.0625 13.1875 -4.0625 13.1875 -5 11 C-4.67 10.01 -4.34 9.02 -4 8 C-3.34 8 -2.68 8 -2 8 C-2.185625 7.38125 -2.37125 6.7625 -2.5625 6.125 C-3 4 -3 4 -2 2 C-1.34 2 -0.68 2 0 2 C0 1.34 0 0.68 0 0 Z " fill="#2B2B2C" transform="translate(794,414)"/>
<path d="M0 0 C0.66 0 1.32 0 2 0 C0.58192622 4.47238653 -1.11304374 8.71146306 -3 13 C-4.125 11.25 -4.125 11.25 -5 9 C-4.125 6.75 -4.125 6.75 -3 5 C-2.34 5 -1.68 5 -1 5 C-0.67 3.35 -0.34 1.7 0 0 Z " fill="#262525" transform="translate(548,235)"/>
<path d="M0 0 C0 3.60573896 -0.81707462 4.41336566 -3 7.1875 C-3.556875 7.90292969 -4.11375 8.61835938 -4.6875 9.35546875 C-5.120625 9.89816406 -5.55375 10.44085938 -6 11 C-6.64453125 9.19921875 -6.64453125 9.19921875 -7 7 C-3.01538462 1.50769231 -3.01538462 1.50769231 0 0 Z " fill="#262626" transform="translate(891,172)"/>
<path d="M0 0 C2.52394612 3.12488567 4.39701907 6.31314387 6 10 C5.67 10.66 5.34 11.32 5 12 C3.68 10.68 2.36 9.36 1 8 C1.33 7.01 1.66 6.02 2 5 C1.01 4.67 0.02 4.34 -1 4 C-0.67 2.68 -0.34 1.36 0 0 Z " fill="#292928" transform="translate(253,692)"/>
<path d="M0 0 C-0.33 0.66 -0.66 1.32 -1 2 C-1.69867188 1.98839844 -2.39734375 1.97679687 -3.1171875 1.96484375 C-4.02726562 1.95582031 -4.93734375 1.94679688 -5.875 1.9375 C-6.77992188 1.92589844 -7.68484375 1.91429687 -8.6171875 1.90234375 C-11.0168585 1.83750743 -11.0168585 1.83750743 -13 3 C-14.67654729 2.72057545 -16.34608154 2.39171753 -18 2 C-18 1.67 -18 1.34 -18 1 C-11.69661213 -0.3792223 -6.3503077 -1.41117949 0 0 Z " fill="#414140" transform="translate(352,429)"/>
<path d="M0 0 C-3.19668988 2.6486859 -6.39486597 4.93992341 -10 7 C-10.33 6.01 -10.66 5.02 -11 4 C-7.20307814 1.17438373 -4.81430721 -0.56638908 0 0 Z " fill="#252424" transform="translate(582,202)"/>
<path d="M0 0 C0.33 1.32 0.66 2.64 1 4 C0.38125 4.2475 -0.2375 4.495 -0.875 4.75 C-3.39578467 6.23281451 -3.7852998 7.40863958 -5 10 C-5.99 10.66 -6.98 11.32 -8 12 C-6.59023295 8.96147295 -4.91129772 6.4060405 -2.875 3.75 C-2.06675781 2.69039062 -2.06675781 2.69039062 -1.2421875 1.609375 C-0.83226562 1.07828125 -0.42234375 0.5471875 0 0 Z " fill="#2C2B2B" transform="translate(455,143)"/>
<path d="M0 0 C0.33 0 0.66 0 1 0 C1.25706972 5.91260345 0.2982126 11.23918159 -1 17 C-1.33 17 -1.66 17 -2 17 C-2.33 13.37 -2.66 9.74 -3 6 C-2.34 5.67 -1.68 5.34 -1 5 C-0.34444881 2.47266765 -0.34444881 2.47266765 0 0 Z " fill="#383738" transform="translate(917,81)"/>
<path d="M0 0 C0.99 0 1.98 0 3 0 C2.67 4.62 2.34 9.24 2 14 C1.67 14 1.34 14 1 14 C0.67 9.38 0.34 4.76 0 0 Z " fill="#2C2B2B" transform="translate(534,675)"/>
<path d="M0 0 C0.66 0.66 1.32 1.32 2 2 C1.84971611 6.05766511 1.59155055 8.3008948 -1.0625 11.4375 C-1.701875 11.953125 -2.34125 12.46875 -3 13 C-2.68991116 11.39536551 -2.37683713 9.79130769 -2.0625 8.1875 C-1.88847656 7.29417969 -1.71445313 6.40085937 -1.53515625 5.48046875 C-1 3 -1 3 0 0 Z " fill="#2A292A" transform="translate(133,586)"/>
<path d="M0 0 C0.66 0.33 1.32 0.66 2 1 C-0.28026001 4.42039001 -0.3867577 4.12406247 -4 5 C-4.495 5.53625 -4.99 6.0725 -5.5 6.625 C-5.995 7.07875 -6.49 7.5325 -7 8 C-9.09375 7.5859375 -9.09375 7.5859375 -11 7 C-9.21475351 5.80286983 -7.4215972 4.61752721 -5.625 3.4375 C-4.62726563 2.77621094 -3.62953125 2.11492187 -2.6015625 1.43359375 C-1.74304688 0.96050781 -0.88453125 0.48742187 0 0 Z " fill="#323131" transform="translate(234,469)"/>
<path d="M0 0 C2.4375 0.8125 2.4375 0.8125 5 2 C6.28317892 5.84953676 6.06643637 8.94738135 6 13 C5.67 13 5.34 13 5 13 C4.87625 11.39125 4.87625 11.39125 4.75 9.75 C3.93299965 5.66499825 3.0438363 4.65108323 0 2 C0 1.34 0 0.68 0 0 Z " fill="#2B2B2A" transform="translate(797,369)"/>
<path d="M0 0 C0 3.41321235 -0.66867466 4.39472885 -2.5 7.1875 C-2.9640625 7.90292969 -3.428125 8.61835938 -3.90625 9.35546875 C-4.2671875 9.89816406 -4.628125 10.44085938 -5 11 C-5.66 10.01 -6.32 9.02 -7 8 C-5.625 6 -5.625 6 -4 4 C-3.34 4 -2.68 4 -2 4 C-2 3.01 -2 2.02 -2 1 C-1.34 0.67 -0.68 0.34 0 0 Z " fill="#272626" transform="translate(556,224)"/>
<path d="M0 0 C0.33 0 0.66 0 1 0 C0.88490339 1.41750563 0.75746342 2.83401169 0.625 4.25 C0.55539062 5.03890625 0.48578125 5.8278125 0.4140625 6.640625 C-0.01507113 9.085877 -0.78600638 10.84836903 -2 13 C-3.41791045 5.62686567 -3.41791045 5.62686567 -1 2 C-0.67 1.34 -0.34 0.68 0 0 Z " fill="#2E2F2F" transform="translate(912,108)"/>
<path d="M0 0 C1.85772162 0.08984301 3.71247985 0.24611861 5.5625 0.4375 C7.08037109 0.59025391 7.08037109 0.59025391 8.62890625 0.74609375 C9.80259766 0.87177734 9.80259766 0.87177734 11 1 C11 1.33 11 1.66 11 2 C5.61509359 2.91657981 0.45769811 3.11138159 -5 3 C-4.360625 2.690625 -3.72125 2.38125 -3.0625 2.0625 C-1.06389179 1.1654837 -1.06389179 1.1654837 0 0 Z " fill="#3C3B3B" transform="translate(349,866)"/>
<path d="M0 0 C1.48117801 0.28127421 2.95993249 0.57533732 4.4375 0.875 C5.67306641 1.11863281 5.67306641 1.11863281 6.93359375 1.3671875 C7.61550781 1.57601562 8.29742187 1.78484375 9 2 C9.33 2.66 9.66 3.32 10 4 C3.49618902 4.36814024 3.49618902 4.36814024 1.0625 2.5625 C0 1 0 1 0 0 Z " fill="#1B1B1B" transform="translate(258,856)"/>
<path d="M0 0 C0.66 0.33 1.32 0.66 2 1 C-1.32307692 6.78461538 -1.32307692 6.78461538 -4.75 7.875 C-5.4925 7.91625 -6.235 7.9575 -7 8 C-6.02133662 6.85373678 -5.04205413 5.70800212 -4.0625 4.5625 C-3.51722656 3.92441406 -2.97195313 3.28632812 -2.41015625 2.62890625 C-1.63204305 1.73008851 -0.84063472 0.84063472 0 0 Z " fill="#181818" transform="translate(470,808)"/>
<path d="M0 0 C0.99 0 1.98 0 3 0 C4.60355101 3.50776784 5.22036864 6.14354879 5 10 C2.35534962 6.8745041 1.15585285 3.91211733 0 0 Z " fill="#282827" transform="translate(139,749)"/>
<path d="M0 0 C0.33 1.32 0.66 2.64 1 4 C-1.97 6.475 -1.97 6.475 -5 9 C-5 5.39222485 -4.0095568 3.93704456 -2 1 C-1.34 0.67 -0.68 0.34 0 0 Z " fill="#20201F" transform="translate(398,699)"/>
<path d="M0 0 C0.66 0.33 1.32 0.66 2 1 C-1.0657052 5.65987191 -3.58657319 6.85485202 -9 8 C-6.14723863 5.06799526 -3.34920216 2.35684596 0 0 Z " fill="#303030" transform="translate(502,100)"/>
<path d="M0 0 C0.33 0.99 0.66 1.98 1 3 C0.00390625 4.82421875 0.00390625 4.82421875 -1.4375 6.6875 C-1.91058594 7.31011719 -2.38367188 7.93273437 -2.87109375 8.57421875 C-3.24363281 9.04472656 -3.61617188 9.51523437 -4 10 C-4.65234375 8.203125 -4.65234375 8.203125 -5 6 C-3.63510623 3.66629928 -1.8580962 1.99405446 0 0 Z " fill="#201F1F" transform="translate(268,603)"/>
<path d="M0 0 C6.875 3.75 6.875 3.75 8 6 C5.69 5.67 3.38 5.34 1 5 C0.67 3.35 0.34 1.7 0 0 Z " fill="#1D1D1D" transform="translate(586,498)"/>
<path d="M0 0 C2.75 0.25 2.75 0.25 5 1 C3.35 2.65 1.7 4.3 0 6 C-1.32 5.34 -2.64 4.68 -4 4 C-2.3125 1.9375 -2.3125 1.9375 0 0 Z " fill="#313030" transform="translate(534,80)"/>
<path d="M0 0 C0.66 0 1.32 0 2 0 C1.53199289 4.05606165 1.12046792 7.46588679 -1 11 C-2.26264601 6.70700357 -1.62950412 4.12168689 0 0 Z " fill="#282827" transform="translate(529,709)"/>
<path d="M0 0 C-4.455 2.97 -4.455 2.97 -9 6 C-8 2 -8 2 -6 0 C-2.44444444 -1.22222222 -2.44444444 -1.22222222 0 0 Z " fill="#2D2C2C" transform="translate(295,582)"/>
<path d="M0 0 C-3.1254959 2.64465038 -6.08788267 3.84414715 -10 5 C-8.20177069 -0.39468792 -5.09771267 -0.22656501 0 0 Z " fill="#2A2A2A" transform="translate(318,568)"/>
<path d="M0 0 C-4.95 1.485 -4.95 1.485 -10 3 C-9 0 -9 0 -6.6875 -1.3125 C-4 -2 -4 -2 0 0 Z " fill="#2D2E2D" transform="translate(333,563)"/>
<path d="M0 0 C3.63 0.33 7.26 0.66 11 1 C7 4 7 4 3.25 3.6875 C2.1775 3.460625 1.105 3.23375 0 3 C0 2.01 0 1.02 0 0 Z " fill="#3D3B3B" transform="translate(582,64)"/>
<path d="M0 0 C2.31 0.33 4.62 0.66 7 1 C3.55549263 3.29633824 1.06187717 3.54016485 -3 4 C-2.01 3.67 -1.02 3.34 0 3 C0 2.01 0 1.02 0 0 Z " fill="#2D2D2C" transform="translate(381,859)"/>
<path d="M0 0 C2 3 2 3 1.8125 5.4375 C0.95218569 8.15079897 -0.16522465 9.84613329 -2 12 C-1 3.42857143 -1 3.42857143 0 0 Z " fill="#323232" transform="translate(127,606)"/>
<path d="M0 0 C2.33944736 0.28730055 4.6739143 0.61936779 7 1 C3.65060119 3.02558881 1.13037449 3.21738987 -2.75 3.125 C-3.73484375 3.10695313 -4.7196875 3.08890625 -5.734375 3.0703125 C-6.85585938 3.03550781 -6.85585938 3.03550781 -8 3 C-8 2.67 -8 2.34 -8 2 C-6.865625 1.855625 -5.73125 1.71125 -4.5625 1.5625 C-1.19222799 1.38828522 -1.19222799 1.38828522 0 0 Z " fill="#343333" transform="translate(712,502)"/>
<path d="M0 0 C0.66 0.33 1.32 0.66 2 1 C-1.17320782 4.53586014 -3.16743695 6.58578031 -8 7 C-5.4837822 4.39391727 -2.94865641 2.10618315 0 0 Z " fill="#333232" transform="translate(221,477)"/>
<path d="M0 0 C0.99 0.33 1.98 0.66 3 1 C0.03 3.475 0.03 3.475 -3 6 C-3.66 5.67 -4.32 5.34 -5 5 C-3.35 3.35 -1.7 1.7 0 0 Z " fill="#2A2929" transform="translate(881,183)"/>
<path d="M0 0 C3.40320742 1.01176437 4.75725331 1.64843582 6.8125 4.625 C7.204375 5.40875 7.59625 6.1925 8 7 C4.59679258 5.98823563 3.24274669 5.35156418 1.1875 2.375 C0.795625 1.59125 0.40375 0.8075 0 0 Z " fill="#1D1C1C" transform="translate(204,827)"/>
<path d="M0 0 C2.52259061 1.97420135 2.9929808 2.96745642 3.6875 6.1875 C3.790625 7.115625 3.89375 8.04375 4 9 C0 4.5 0 4.5 0 0 Z " fill="#282827" transform="translate(152,770)"/>
<path d="M0 0 C0.33 0.66 0.66 1.32 1 2 C0.06421005 4.35981813 -0.93347808 6.69631264 -2 9 C-3.125 7.25 -3.125 7.25 -4 5 C-3.07451225 2.30066074 -2.57626463 1.28813232 0 0 Z " fill="#2C2C2C" transform="translate(524,730)"/>
<path d="M0 0 C0.66 1.32 1.32 2.64 2 4 C0.35 5.65 -1.3 7.3 -3 9 C-2.01 6.03 -1.02 3.06 0 0 Z " fill="#262626" transform="translate(141,567)"/>
<path d="M0 0 C0.99 0.66 1.98 1.32 3 2 C1.8125 3.5625 1.8125 3.5625 0 5 C-2.6875 4.6875 -2.6875 4.6875 -5 4 C-4.34 3.34 -3.68 2.68 -3 2 C-2.01 2 -1.02 2 0 2 C0 1.34 0 0.68 0 0 Z " fill="#292929" transform="translate(551,74)"/>
<path d="M0 0 C0 0.99 0 1.98 0 3 C-3.3 2.67 -6.6 2.34 -10 2 C-10 1.67 -10 1.34 -10 1 C-6.56484998 0.37542727 -3.50935186 0 0 0 Z " fill="#353535" transform="translate(347,740)"/>
<path d="M0 0 C0.66 0.33 1.32 0.66 2 1 C0.68 2.32 -0.64 3.64 -2 5 C-2.66 4.67 -3.32 4.34 -4 4 C-4.33 4.66 -4.66 5.32 -5 6 C-5.66 5.34 -6.32 4.68 -7 4 C-1.7265625 0.77734375 -1.7265625 0.77734375 0 0 Z " fill="#373736" transform="translate(367,730)"/>
<path d="M0 0 C0.66 0 1.32 0 2 0 C1.34 2.97 0.68 5.94 0 9 C-2 5 -2 5 -1.125 2.25 C-0.75375 1.5075 -0.3825 0.765 0 0 Z " fill="#262526" transform="translate(526,720)"/>
<path d="M0 0 C0.33 0.66 0.66 1.32 1 2 C1.66 2 2.32 2 3 2 C2.67 4.64 2.34 7.28 2 10 C-0.09350689 6.5980513 -0.17942163 3.94727588 0 0 Z " fill="#323131" transform="translate(124,700)"/>
<path d="M0 0 C2 4 2 4 2 8 C1.34 8 0.68 8 0 8 C-0.33 8.66 -0.66 9.32 -1 10 C-0.67 6.7 -0.34 3.4 0 0 Z " fill="#282827" transform="translate(249,678)"/>
<path d="M0 0 C-3.26545761 1.88391785 -6.28111761 2.49287967 -10 3 C-9.34 2.67 -8.68 2.34 -8 2 C-8 1.34 -8 0.68 -8 0 C-5.13822943 -1.43088528 -3.06624227 -0.59991697 0 0 Z " fill="#2D2C2C" transform="translate(343,559)"/>
<path d="M0 0 C1.60080151 4.00200378 0.29279692 7.04556236 -1 11 C-2.125 9.25 -2.125 9.25 -3 7 C-2.1875 4.9375 -2.1875 4.9375 -1 3 C-0.67 2.01 -0.34 1.02 0 0 Z " fill="#333333" transform="translate(797,403)"/>
<path d="M0 0 C1 3 1 3 -0.4375 6.1875 C-1.2109375 7.5796875 -1.2109375 7.5796875 -2 9 C-2.33 9 -2.66 9 -3 9 C-3 7.02 -3 5.04 -3 3 C-2.01 2.67 -1.02 2.34 0 2 C0 1.34 0 0.68 0 0 Z " fill="#343333" transform="translate(898,157)"/>
<path d="M0 0 C-2 2 -2 2 -3.9453125 2.1953125 C-5.96354167 2.13020833 -7.98177083 2.06510417 -10 2 C-6.16991045 -0.55339303 -4.41711378 -1.47237126 0 0 Z " fill="#363536" transform="translate(573,70)"/>
<path d="M0 0 C0.33 1.32 0.66 2.64 1 4 C0.34 3.67 -0.32 3.34 -1 3 C-0.67 2.01 -0.34 1.02 0 0 Z " fill="#302F2F" transform="translate(129,592)"/>
<path d="M0 0 C0.66 0.33 1.32 0.66 2 1 C1.01 1 0.02 1 -1 1 C-0.67 0.67 -0.34 0.34 0 0 Z " fill="#333132" transform="translate(515,88)"/>
<path d="M0 0 C3 1 3 1 3 1 Z " fill="#2F2E2D" transform="translate(306,870)"/>
<path d="M0 0 C0.99 0.495 0.99 0.495 2 1 C1.01 1.495 1.01 1.495 0 2 C0 1.34 0 0.68 0 0 Z " fill="#333231" transform="translate(144,765)"/>
<path d="M0 0 C3 1 3 1 3 1 Z " fill="#323230" transform="translate(210,480)"/>
<path d="M0 0 C3 1 3 1 3 1 Z " fill="#31302F" transform="translate(232,467)"/>
<path d="M0 0 C3 1 3 1 3 1 Z " fill="#323131" transform="translate(232,465)"/>
<path d="M0 0 C3 1 3 1 3 1 Z " fill="#313031" transform="translate(272,448)"/>
<path d="" fill="#312E31" transform="translate(0,0)"/>
<path d="M0 0 C3 1 3 1 3 1 Z " fill="#2E2D2C" transform="translate(579,65)"/>
<path d="M0 0 C2 1 2 1 2 1 Z " fill="#2B2929" transform="translate(324,871)"/>
<path d="M0 0 C2 1 2 1 2 1 Z " fill="#2D2D2D" transform="translate(354,869)"/>
<path d="" fill="#302F2E" transform="translate(0,0)"/>
<path d="M0 0 C2 1 2 1 2 1 Z " fill="#312F31" transform="translate(384,712)"/>
<path d="" fill="#2B2A2A" transform="translate(0,0)"/>
<path d="" fill="#323130" transform="translate(0,0)"/>
<path d="" fill="#323231" transform="translate(0,0)"/>
<path d="" fill="#353332" transform="translate(0,0)"/>
<path d="" fill="#373735" transform="translate(0,0)"/>
<path d="M0 0 C2 1 2 1 2 1 Z " fill="#313030" transform="translate(255,456)"/>
<path d="M0 0 C2 1 2 1 2 1 Z " fill="#323230" transform="translate(312,434)"/>
<path d="" fill="#333331" transform="translate(0,0)"/>
<path d="" fill="#323131" transform="translate(0,0)"/>
<path d="" fill="#313130" transform="translate(0,0)"/>
<path d="" fill="#2D2B2B" transform="translate(0,0)"/>
<path d="" fill="#2F2D2D" transform="translate(0,0)"/>
<path d="" fill="#2C2B29" transform="translate(0,0)"/>
<path d="" fill="#2D2A2B" transform="translate(0,0)"/>
<path d="" fill="#2E2D2E" transform="translate(0,0)"/>
<path d="" fill="#2F2D30" transform="translate(0,0)"/>
<path d="" fill="#322F2F" transform="translate(0,0)"/>
<path d="" fill="#2F2D2E" transform="translate(0,0)"/>
<path d="" fill="#2F2F2D" transform="translate(0,0)"/>
<path d="" fill="#302F2F" transform="translate(0,0)"/>
<path d="" fill="#31302E" transform="translate(0,0)"/>
<path d="" fill="#2F2C2E" transform="translate(0,0)"/>
<path d="" fill="#2F2E2C" transform="translate(0,0)"/>
<path d="" fill="#302F2D" transform="translate(0,0)"/>
<path d="" fill="#2F2E2C" transform="translate(0,0)"/>
<path d="" fill="#2E2D2D" transform="translate(0,0)"/>
<path d="" fill="#302F2E" transform="translate(0,0)"/>
<path d="" fill="#2D2B2A" transform="translate(0,0)"/>
<path d="" fill="#302E2C" transform="translate(0,0)"/>
<path d="" fill="#2E2B2C" transform="translate(0,0)"/>
<path d="" fill="#2E2D2C" transform="translate(0,0)"/>
<path d="" fill="#2D302F" transform="translate(0,0)"/>
<path d="" fill="#2F2D2D" transform="translate(0,0)"/>
<path d="" fill="#2E2C2C" transform="translate(0,0)"/>
<path d="" fill="#2E2E2B" transform="translate(0,0)"/>
<path d="" fill="#2E2C2C" transform="translate(0,0)"/>
<path d="" fill="#2E2B2C" transform="translate(0,0)"/>
<path d="" fill="#2F2D2C" transform="translate(0,0)"/>
<path d="" fill="#312F30" transform="translate(0,0)"/>
<path d="" fill="#31302E" transform="translate(0,0)"/>
<path d="" fill="#333130" transform="translate(0,0)"/>
<path d="" fill="#2F2E2E" transform="translate(0,0)"/>
<path d="" fill="#323231" transform="translate(0,0)"/>
<path d="" fill="#302F30" transform="translate(0,0)"/>
<path d="" fill="#2F2F2D" transform="translate(0,0)"/>
<path d="" fill="#312F2D" transform="translate(0,0)"/>
<path d="" fill="#2F2E2E" transform="translate(0,0)"/>
<path d="" fill="#333333" transform="translate(0,0)"/>
<path d="" fill="#333231" transform="translate(0,0)"/>
<path d="" fill="#322F2E" transform="translate(0,0)"/>
<path d="" fill="#312E2E" transform="translate(0,0)"/>
<path d="" fill="#312E2E" transform="translate(0,0)"/>
<path d="" fill="#2F2F2F" transform="translate(0,0)"/>
<path d="" fill="#32312F" transform="translate(0,0)"/>
<path d="" fill="#33302F" transform="translate(0,0)"/>
<path d="" fill="#2E2E2E" transform="translate(0,0)"/>
<path d="" fill="#303030" transform="translate(0,0)"/>
<path d="" fill="#343232" transform="translate(0,0)"/>
<path d="" fill="#302E2F" transform="translate(0,0)"/>
<path d="" fill="#313130" transform="translate(0,0)"/>
<path d="" fill="#333132" transform="translate(0,0)"/>
<path d="" fill="#333230" transform="translate(0,0)"/>
<path d="" fill="#343233" transform="translate(0,0)"/>
<path d="" fill="#313030" transform="translate(0,0)"/>
<path d="" fill="#323230" transform="translate(0,0)"/>
<path d="" fill="#302D2D" transform="translate(0,0)"/>
<path d="" fill="#32322E" transform="translate(0,0)"/>
<path d="" fill="#313230" transform="translate(0,0)"/>
<path d="" fill="#343433" transform="translate(0,0)"/>
<path d="" fill="#2E2E2D" transform="translate(0,0)"/>
<path d="" fill="#322F2F" transform="translate(0,0)"/>
<path d="" fill="#312F30" transform="translate(0,0)"/>
<path d="" fill="#32302F" transform="translate(0,0)"/>
<path d="" fill="#353534" transform="translate(0,0)"/>
<path d="" fill="#343333" transform="translate(0,0)"/>
<path d="" fill="#323131" transform="translate(0,0)"/>
<path d="" fill="#2A2B2B" transform="translate(0,0)"/>
<path d="" fill="#30312F" transform="translate(0,0)"/>
<path d="" fill="#2D2D2C" transform="translate(0,0)"/>
<path d="" fill="#323231" transform="translate(0,0)"/>
<path d="" fill="#302E2E" transform="translate(0,0)"/>
<path d="" fill="#302F2F" transform="translate(0,0)"/>
<path d="" fill="#313131" transform="translate(0,0)"/>
<path d="" fill="#33302E" transform="translate(0,0)"/>
<path d="" fill="#353535" transform="translate(0,0)"/>
<path d="" fill="#373537" transform="translate(0,0)"/>
<path d="" fill="#312F2F" transform="translate(0,0)"/>
<path d="" fill="#333131" transform="translate(0,0)"/>
<path d="" fill="#323334" transform="translate(0,0)"/>
<path d="" fill="#343434" transform="translate(0,0)"/>
<path d="" fill="#333031" transform="translate(0,0)"/>
<path d="" fill="#312B30" transform="translate(0,0)"/>
<path d="" fill="#312F2F" transform="translate(0,0)"/>
<path d="" fill="#313030" transform="translate(0,0)"/>
<path d="" fill="#2F2A2B" transform="translate(0,0)"/>
<path d="" fill="#2F2E2F" transform="translate(0,0)"/>
<path d="" fill="#32322F" transform="translate(0,0)"/>
<path d="" fill="#333233" transform="translate(0,0)"/>
<path d="" fill="#333131" transform="translate(0,0)"/>
<path d="" fill="#2F2E30" transform="translate(0,0)"/>
<path d="" fill="#2F312E" transform="translate(0,0)"/>
<path d="" fill="#363534" transform="translate(0,0)"/>
<path d="" fill="#353434" transform="translate(0,0)"/>
<path d="" fill="#333433" transform="translate(0,0)"/>
<path d="" fill="#353532" transform="translate(0,0)"/>
<path d="" fill="#2F2C2E" transform="translate(0,0)"/>
<path d="" fill="#333131" transform="translate(0,0)"/>
<path d="" fill="#2F2E2E" transform="translate(0,0)"/>
<path d="" fill="#333533" transform="translate(0,0)"/>
<path d="" fill="#333434" transform="translate(0,0)"/>
<path d="" fill="#2D2F30" transform="translate(0,0)"/>
<path d="" fill="#323031" transform="translate(0,0)"/>
<path d="" fill="#3B3B3C" transform="translate(0,0)"/>
<path d="" fill="#3B3B3A" transform="translate(0,0)"/>
<path d="" fill="#343333" transform="translate(0,0)"/>
<path d="" fill="#313031" transform="translate(0,0)"/>
<path d="" fill="#2F2E2F" transform="translate(0,0)"/>
<path d="" fill="#302F2F" transform="translate(0,0)"/>
<path d="" fill="#323132" transform="translate(0,0)"/>
<path d="" fill="#333031" transform="translate(0,0)"/>
<path d="" fill="#333331" transform="translate(0,0)"/>
<path d="" fill="#373537" transform="translate(0,0)"/>
<path d="" fill="#333431" transform="translate(0,0)"/>
<path d="" fill="#2F2F2C" transform="translate(0,0)"/>
<path d="" fill="#333230" transform="translate(0,0)"/>
<path d="" fill="#343332" transform="translate(0,0)"/>
<path d="" fill="#393939" transform="translate(0,0)"/>
<path d="" fill="#333331" transform="translate(0,0)"/>
<path d="" fill="#302E29" transform="translate(0,0)"/>
<path d="" fill="#31302E" transform="translate(0,0)"/>
<path d="" fill="#303031" transform="translate(0,0)"/>
<path d="" fill="#3C3938" transform="translate(0,0)"/>
<path d="" fill="#333232" transform="translate(0,0)"/>
<path d="" fill="#343030" transform="translate(0,0)"/>
<path d="" fill="#282728" transform="translate(0,0)"/>
<path d="" fill="#2E2D2E" transform="translate(0,0)"/>
<path d="" fill="#30302E" transform="translate(0,0)"/>
<path d="" fill="#333130" transform="translate(0,0)"/>
<path d="" fill="#2F302F" transform="translate(0,0)"/>
<path d="" fill="#2E2D2D" transform="translate(0,0)"/>
<path d="" fill="#2E302B" transform="translate(0,0)"/>
<path d="" fill="#302E2D" transform="translate(0,0)"/>
</svg>
