<?xml version="1.0" encoding="UTF-8"?>
<svg version="1.1" xmlns="http://www.w3.org/2000/svg" width="392" height="392">
<path d="M0 0 C129.36 0 258.72 0 392 0 C392 129.36 392 258.72 392 392 C262.64 392 133.28 392 0 392 C0 262.64 0 133.28 0 0 Z " fill="#FEFEFE" transform="translate(0,0)"/>
<path d="M0 0 C4.21108237 1.73029622 7.3572426 4.67180112 10.75 7.625 C11.3783374 8.1713208 12.0066748 8.7176416 12.65405273 9.28051758 C14.44294324 10.84605689 16.22306554 12.42091637 18 14 C18.73863281 14.65097656 19.47726562 15.30195312 20.23828125 15.97265625 C44.24809207 38.54290668 61.92733021 75.51720212 63.12573242 108.45581055 C63.20733663 112.61711011 63.24503309 116.77552012 63.25 120.9375 C63.25167175 121.67410858 63.25334351 122.41071716 63.25506592 123.16964722 C63.25654943 134.05992767 62.70248717 144.40079573 60 155 C59.76470581 155.97175171 59.76470581 155.97175171 59.5246582 156.96313477 C53.22556499 182.86146843 40.89942755 205.35786784 23 225 C22.14921875 225.93457031 21.2984375 226.86914062 20.421875 227.83203125 C4.4918434 244.50133078 -15.40119583 256.24595592 -37 264 C-38.02480469 264.37769531 -39.04960937 264.75539063 -40.10546875 265.14453125 C-52.51034328 269.51983046 -65.40459731 272.12103185 -78.5703125 272.1328125 C-79.25503632 272.13376923 -79.93976013 272.13472595 -80.64523315 272.13571167 C-82.07875664 272.13638631 -83.51228332 272.13458256 -84.94580078 272.13037109 C-87.12669776 272.12499582 -89.3073904 272.13034904 -91.48828125 272.13671875 C-92.89062545 272.13605816 -94.29296952 272.13477741 -95.6953125 272.1328125 C-96.95359863 272.13168457 -98.21188477 272.13055664 -99.50830078 272.12939453 C-102.76418876 272.00873863 -105.80504153 271.61764699 -109 271 C-109.0928125 270.40574219 -109.185625 269.81148438 -109.28125 269.19921875 C-110.1730754 266.47042691 -111.27559703 265.59996667 -113.5 263.8125 C-131.07722172 249.03379837 -141.17628948 230.99806445 -147 209 C-147.24621094 208.11699219 -147.49242187 207.23398437 -147.74609375 206.32421875 C-150.09378292 196.17248694 -150.90779276 182.09243381 -148 172 C-143.91643411 172.35820753 -139.99825386 172.75467748 -136.01171875 173.734375 C-118.76553122 177.95143585 -99.09251243 177.90600242 -82 173 C-81.35562988 172.82307617 -80.71125977 172.64615234 -80.04736328 172.46386719 C-48.4379291 163.71745744 -21.4866735 144.5619304 -5 116 C5.52751187 97.08894815 11.58212252 77.85291076 11.39111328 56.16601562 C11.37500492 54.00066196 11.39108519 51.83717349 11.41015625 49.671875 C11.42940153 37.31710547 9.57914504 25.71446781 5.5 14 C4.89671875 12.2365625 4.89671875 12.2365625 4.28125 10.4375 C2.9622894 6.89882521 1.51705046 3.45746383 0 0 Z " fill="#010101" transform="translate(273,74)"/>
<path d="M0 0 C0.84046875 0.63292969 1.6809375 1.26585937 2.546875 1.91796875 C3.85398438 2.94857422 3.85398438 2.94857422 5.1875 4 C6.10015625 4.69738281 7.0128125 5.39476562 7.953125 6.11328125 C26.28840733 20.53054934 39.0080319 40.54912264 41.98974609 63.89746094 C42.55609113 69.9188973 42.40422135 75.96390904 42.1875 82 C40.94226563 81.89171875 40.94226563 81.89171875 39.671875 81.78125 C30.44860883 81.08661071 21.24894347 80.861553 12 80.8125 C10.83758789 80.79960937 9.67517578 80.78671875 8.47753906 80.7734375 C-27.05759882 80.73329614 -58.25144236 96.51660521 -83.08203125 121.26171875 C-109.14519239 148.87680192 -118.76820541 184.61618335 -117.94433594 221.70556641 C-117.25392524 238.95816266 -111.54525483 255.2374328 -104.8125 271 C-130.8743178 259.21013004 -151.82774059 228.54669591 -161.79321289 202.6809082 C-163.21600376 198.81338739 -164.54467773 194.920874 -165.8125 191 C-166.02632324 190.3395166 -166.24014648 189.6790332 -166.46044922 188.99853516 C-170.96440374 174.80280583 -172.22328278 161.2837091 -172.1875 146.5 C-172.18695618 145.65651001 -172.18641235 144.81302002 -172.18585205 143.94396973 C-172.14813195 131.22837203 -171.49689865 119.24768136 -167.8125 107 C-167.59819336 106.24460937 -167.38388672 105.48921875 -167.16308594 104.7109375 C-163.94583265 93.50908908 -159.41031666 83.2055433 -153.8125 73 C-153.30847656 72.07703125 -152.80445313 71.1540625 -152.28515625 70.203125 C-146.12445705 59.48589759 -138.27357369 49.9666563 -129.8125 41 C-129.15121094 40.27425781 -128.48992187 39.54851562 -127.80859375 38.80078125 C-104.80977157 14.49272821 -32.72599091 -24.75941869 0 0 Z " fill="#010101" transform="translate(208.8125,50)"/>
<path d="M0 0 C1.30195313 -0.01224609 2.60390625 -0.02449219 3.9453125 -0.03710938 C5.20859375 -0.03904297 6.471875 -0.04097656 7.7734375 -0.04296875 C8.91989746 -0.04707764 10.06635742 -0.05118652 11.24755859 -0.05541992 C15.00715943 0.21498653 18.04642939 1.03929705 21.625 2.1875 C12.1655349 24.24298969 -6.37643211 39.59308566 -28.3359375 48.37109375 C-45.88189187 54.65724276 -66.48975755 55.76212102 -84.375 50.1875 C-83.04092947 45.30568148 -80.87007666 41.72429904 -77.75 37.8125 C-77.29979492 37.24233154 -76.84958984 36.67216309 -76.38574219 36.0847168 C-61.81029876 17.87574238 -42.08800159 6.08421289 -19.375 1.1875 C-18.24203491 0.92380615 -18.24203491 0.92380615 -17.08618164 0.65478516 C-11.46175155 -0.31461234 -5.69200994 0.00280119 0 0 Z " fill="#030303" transform="translate(221.375,163.8125)"/>
<path d="M0 0 C129.36 0 258.72 0 392 0 C392 129.36 392 258.72 392 392 C262.64 392 133.28 392 0 392 C0 262.64 0 133.28 0 0 Z M2 2 C2 130.04 2 258.08 2 390 C130.04 390 258.08 390 390 390 C390 261.96 390 133.92 390 2 C261.96 2 133.92 2 2 2 Z " fill="#000000" transform="translate(0,0)"/>
</svg>
